<svg width="200" height="200" viewBox="0 0 200 200" fill="none" xmlns="http://www.w3.org/2000/svg">
<path d="M150.177 0H49.8227C22.3064 0 0 22.3064 0 49.8227V150.177C0 177.693 22.3064 200 49.8227 200H150.177C177.693 200 200 177.693 200 150.177V49.8227C200 22.3064 177.693 0 150.177 0Z" fill="#DAFCF5"/>
<path d="M104.144 111.492C102.576 105.902 102.524 99.9951 103.995 94.379C105.465 88.7623 108.404 83.639 112.51 79.534C116.615 75.4296 121.74 72.4923 127.357 71.0234C132.974 69.5551 138.88 69.6079 144.47 71.1779L104.144 111.492Z" fill="#13818B"/>
<path d="M102.796 80.8488C104.54 74.6505 104.601 68.0994 102.973 61.8688C101.346 55.6388 98.0879 49.9551 93.5351 45.4019C88.9818 40.8487 83.2979 37.5907 77.0679 35.963C70.8379 34.3353 64.2862 34.3967 58.0879 36.1409L102.796 80.8488Z" fill="#13818B"/>
<path d="M104.144 69.9573H95.8555V143.994H104.144V69.9573Z" fill="#13818B"/>
<path d="M158.884 165.208L115.223 128.369C110.969 124.772 105.578 122.797 100.006 122.797C94.4349 122.797 89.0438 124.772 84.7899 128.369L41.1279 165.219L158.884 165.208Z" fill="#000B50"/>
</svg>
