<svg width="200" height="200" viewBox="0 0 200 200" fill="none" xmlns="http://www.w3.org/2000/svg">
<path d="M150.177 0H49.8227C22.3064 0 0 22.3064 0 49.8227V150.177C0 177.693 22.3064 200 49.8227 200H150.177C177.693 200 200 177.693 200 150.177V49.8227C200 22.3064 177.693 0 150.177 0Z" fill="#E3F8FF"/>
<path d="M64.3993 66.26H135.751C137.308 66.26 138.801 66.8783 139.902 67.9789C141.003 69.08 141.622 70.5733 141.622 72.13V101.192H58.5293V72.13C58.5293 70.5733 59.1476 69.08 60.2487 67.9789C61.3493 66.8783 62.8426 66.26 64.3993 66.26Z" fill="#1D6AE5"/>
<path d="M132.893 66.26H135.752C137.309 66.26 138.802 66.8783 139.903 67.9789C141.004 69.08 141.623 70.5733 141.623 72.13V80.9695C140.038 80.2311 138.579 79.2167 137.319 77.9567C134.485 75.1228 132.893 71.2789 132.893 67.2711V66.26Z" fill="#FFC729"/>
<path d="M100.204 66.26H132.753V67.2711C132.753 71.2789 131.161 75.1228 128.327 77.9567C125.493 80.7906 121.649 82.3828 117.641 82.3828H115.316C111.308 82.3828 107.465 80.7906 104.63 77.9567C101.796 75.1228 100.204 71.2789 100.204 67.2711V66.26Z" fill="#FFC729"/>
<path d="M100.076 66.26V67.2711C100.076 71.2789 98.4842 75.1228 95.6503 77.9567C92.8164 80.7906 88.9725 82.3828 84.9647 82.3828H82.5353C78.5269 82.3828 74.6836 80.7906 71.8492 77.9567C69.0153 75.1228 67.4231 71.2789 67.4231 67.2711C67.4231 71.2789 65.8308 75.1228 62.9969 77.9567C61.6942 79.2595 60.1781 80.3 58.5303 81.0439V72.13C58.5303 70.5733 59.1486 69.08 60.2497 67.9789C61.3508 66.8783 62.8436 66.26 64.4008 66.26H100.076Z" fill="#FFC729"/>
<path d="M52.3103 101.215H147.631C148.402 101.215 149.166 101.367 149.878 101.662C150.59 101.957 151.237 102.39 151.782 102.935C152.327 103.48 152.76 104.127 153.055 104.839C153.35 105.551 153.502 106.315 153.502 107.086V136.147H46.498V107.086C46.498 105.538 47.1085 104.055 48.1968 102.955C49.2852 101.856 50.7635 101.231 52.3103 101.215Z" fill="#E3F8FF"/>
<path d="M52.4963 101.215H147.515C149.121 101.215 150.662 101.853 151.798 102.989C152.933 104.125 153.572 105.665 153.572 107.272V136.147H46.498V107.26C46.501 105.666 47.1325 104.137 48.2554 103.005C49.3783 101.874 50.9022 101.231 52.4963 101.215Z" fill="#1D6AE5"/>
<path d="M116.931 49.3341L99.9937 66.2827L83.057 49.3341C81.467 47.7334 80.5742 45.5687 80.5742 43.3125C80.5742 41.0563 81.467 38.8918 83.057 37.2911L83.3359 37.0121C84.9364 35.422 87.1014 34.5295 89.3576 34.5295C91.6137 34.5295 93.7781 35.422 95.3787 37.0121L100.029 41.6619L104.679 37.0121C106.279 35.422 108.444 34.5295 110.7 34.5295C112.956 34.5295 115.121 35.422 116.721 37.0121L116.989 37.2911C118.577 38.8964 119.463 41.0665 119.452 43.3246C119.441 45.5827 118.534 47.7442 116.931 49.3341Z" fill="#000B50"/>
<path d="M164.928 134.472H35.0703V143.888H164.928V134.472Z" fill="#000B50"/>
<path d="M132.449 160.175V165.475H67.5146V160.175H70.4791C72.7735 160.199 75.0463 159.723 77.138 158.78C79.2302 157.836 81.0913 156.447 82.5919 154.711C86.9458 149.698 89.3691 143.297 89.4269 136.658V136.147H110.525V136.658C110.586 143.023 112.822 149.176 116.861 154.095C118.383 155.982 120.307 157.505 122.494 158.553C124.68 159.601 127.072 160.147 129.497 160.151L132.449 160.175Z" fill="#000B50"/>
<path d="M132.731 101.162H147.437C149.043 101.162 150.584 101.8 151.719 102.936C152.855 104.072 153.493 105.612 153.493 107.219V116.892C152.41 117.137 151.296 117.263 150.168 117.263H147.843C143.835 117.263 139.991 115.67 137.158 112.836C134.324 110.002 132.731 106.158 132.731 102.15V101.162Z" fill="#FFC729"/>
<path d="M100.02 101.162H132.568V102.15C132.568 104.135 132.177 106.1 131.418 107.934C130.658 109.767 129.545 111.433 128.142 112.836C126.738 114.239 125.073 115.353 123.239 116.112C121.406 116.872 119.441 117.263 117.456 117.263H115.131C111.123 117.263 107.28 115.67 104.446 112.836C101.611 110.002 100.02 106.158 100.02 102.15V101.162Z" fill="#FFC729"/>
<path d="M67.3438 101.162H99.8921V102.15C99.8921 106.158 98.3004 110.002 95.466 112.836C92.6321 115.67 88.7882 117.263 84.7804 117.263H82.4554C78.4476 117.263 74.6037 115.67 71.7699 112.836C68.936 110.002 67.3438 106.158 67.3438 102.15V101.162Z" fill="#FFC729"/>
<path d="M67.238 101.162V102.15C67.238 106.158 65.6463 110.002 62.8119 112.836C59.978 115.67 56.1341 117.263 52.1263 117.263H49.8014C48.6539 117.263 47.5198 117.132 46.4189 116.879V107.207C46.4219 105.613 47.0534 104.084 48.1763 102.953C49.2992 101.821 50.8231 101.178 52.4172 101.162H67.238Z" fill="#FFC729"/>
</svg>
