<svg width="200" height="200" viewBox="0 0 200 200" fill="none" xmlns="http://www.w3.org/2000/svg">
<g clip-path="url(#clip0_5_44)">
<path d="M150.177 5.27759H49.8227C22.3064 5.27759 0 27.584 0 55.1003V155.455C0 182.971 22.3064 205.278 49.8227 205.278H150.177C177.694 205.278 200 182.971 200 155.455V55.1003C200 27.584 177.694 5.27759 150.177 5.27759Z" fill="#FCFCD0"/>
<path d="M99.9937 113.268V98.0161C92.282 98.0128 84.5793 97.4733 76.9426 96.4006C79.0015 95.1739 80.7198 93.45 81.9387 91.3861C83.157 89.3222 83.8376 86.9856 83.917 84.59C84.382 75.4761 78.9765 67.2695 71.8626 65.735C64.7481 64.2006 57.2854 69.8033 55.3674 78.7545C54.8596 81.23 54.9278 83.7889 55.5665 86.2339C56.2059 88.6789 57.3981 90.9444 59.052 92.855C51.4889 90.9161 44.0731 88.4417 36.8611 85.45C35.6444 90.4483 34.4819 95.4861 33.3737 100.562C39.7766 103.109 46.3203 105.286 52.9726 107.083C52.8448 107.909 52.7286 108.746 52.6124 109.571C45.8475 118.447 38.5205 126.881 30.6768 134.819C35.497 138.299 40.5112 141.589 45.719 144.689C52.6629 137.211 59.142 129.314 65.1204 121.044C69.3704 131.276 74.3993 141.167 80.1626 150.629C85.7187 149.42 91.1437 147.998 96.437 146.363C89.8965 136.279 84.2004 125.672 79.407 114.651C79.407 113.826 79.5115 113 79.5698 112.163C86.3509 112.922 93.1704 113.291 99.9937 113.268Z" fill="#FA7D29"/>
<path d="M166.591 100.506C165.513 95.4762 164.351 90.439 163.103 85.394C155.891 88.3857 148.475 90.8601 140.912 92.799C142.566 90.8884 143.758 88.6229 144.397 86.1779C145.036 83.7329 145.105 81.174 144.597 78.6984C142.679 69.7473 135.227 64.1673 128.113 65.679C120.999 67.1901 115.582 75.4318 116.047 84.534C116.127 86.929 116.807 89.2662 118.026 91.3301C119.245 93.394 120.962 95.1179 123.022 96.344C115.385 97.4168 107.682 97.9568 99.9707 97.9601V113.211C106.776 113.208 113.575 112.82 120.336 112.049C120.395 112.886 120.441 113.711 120.499 114.537C115.705 125.556 110.013 136.162 103.481 146.248C108.797 147.876 114.222 149.298 119.755 150.515C125.542 141.054 130.594 131.163 134.867 120.93C140.838 129.206 147.318 137.102 154.268 144.575C159.453 141.475 164.467 138.185 169.311 134.705C161.463 126.77 154.137 118.336 147.375 109.457C147.247 108.631 147.131 107.795 147.003 106.969C153.652 105.196 160.192 103.038 166.591 100.506Z" fill="#FA7D29"/>
</g>
<defs>
<clipPath id="clip0_5_44">
<rect width="200" height="200" fill="white"/>
</clipPath>
</defs>
</svg>
