<svg width="200" height="200" viewBox="0 0 200 200" fill="none" xmlns="http://www.w3.org/2000/svg">
<g clip-path="url(#clip0_5_28)">
<path d="M150.177 5.27759H49.8227C22.3064 5.27759 0 27.584 0 55.1003V155.455C0 182.971 22.3064 205.278 49.8227 205.278H150.177C177.694 205.278 200 182.971 200 155.455V55.1003C200 27.584 177.694 5.27759 150.177 5.27759Z" fill="#FCFCD0"/>
<path d="M144.016 51.4001L134.579 44.9558L47.0537 173.119L56.4899 179.564L144.016 51.4001Z" fill="#000B50"/>
<path d="M134.124 55.5879C126.033 50.0596 116.934 46.1796 107.344 44.1693C97.7537 42.1589 87.8615 42.0575 78.232 43.8711C68.6031 45.6846 59.4253 49.3775 51.224 54.7387C43.0224 60.1001 35.9574 67.0245 30.4326 75.1167L67.3987 100.365C90.6359 66.3401 120.523 46.2881 134.124 55.5879Z" fill="#FF8A00"/>
<path d="M134.124 55.5884C147.736 64.8878 139.936 100.006 116.688 134.031L153.665 159.279C159.191 151.188 163.069 142.087 165.077 132.497C167.086 122.907 167.186 113.015 165.371 103.386C163.557 93.7573 159.864 84.58 154.502 76.3789C149.141 68.1778 142.216 61.1128 134.124 55.5884Z" fill="#FF8A00"/>
<path d="M134.123 55.5873C120.523 46.2878 90.6362 66.3401 67.3984 100.365L116.687 134.076C139.936 99.9929 147.736 64.8757 134.123 55.5873Z" fill="#1D6AE5"/>
<path d="M134.123 55.5873C120.523 46.2878 90.6362 66.3401 67.3984 100.365L116.687 134.076C139.936 99.9929 147.736 64.8757 134.123 55.5873Z" fill="#FFC729"/>
</g>
<defs>
<clipPath id="clip0_5_28">
<rect width="200" height="200" fill="white"/>
</clipPath>
</defs>
</svg>
